<svg width="12" height="12" viewBox="0 0 12 12" fill="none" xmlns="http://www.w3.org/2000/svg">
<circle cx="6" cy="6" r="6" fill="white"/>
<path fill-rule="evenodd" clip-rule="evenodd" d="M6.63739 4.66667L6.66671 3.33333C6.66671 3.16667 6.50058 3 6.33446 3H5.66997C5.50384 3 5.33772 3.16667 5.33772 3.33333L5.33772 4.66667C5.33772 4.75293 5.32794 4.91374 5.33772 5L5.50384 6.33333C5.51361 6.4771 5.65042 6.66667 5.797 6.66667H6.16833C6.31491 6.66667 6.49081 6.4771 6.50058 6.33333L6.63739 5C6.63739 4.91374 6.63739 4.75293 6.63739 4.66667Z" stroke="#8B0000" stroke-linecap="round" stroke-linejoin="round"/>
<path d="M6.66671 8.33333C6.66671 8.70152 6.3692 9 6.00221 9C5.63522 9 5.33772 8.70152 5.33772 8.33333C5.33772 7.96514 5.63522 7.66667 6.00221 7.66667C6.3692 7.66667 6.66671 7.96514 6.66671 8.33333Z" stroke="#8B0000" stroke-linecap="round" stroke-linejoin="round"/>
</svg>
