<?xml version="1.0" standalone="no"?>
<!DOCTYPE svg PUBLIC "-//W3C//DTD SVG 20010904//EN"
 "http://www.w3.org/TR/2001/REC-SVG-20010904/DTD/svg10.dtd">
<svg version="1.0" xmlns="http://www.w3.org/2000/svg"
 width="800.000000pt" height="800.000000pt" viewBox="0 0 800.000000 800.000000"
 preserveAspectRatio="xMidYMid meet">
<metadata>
Created by potrace 1.14, written by Peter Selinger 2001-2017
</metadata>
<g transform="translate(0.000000,800.000000) scale(0.100000,-0.100000)"
fill="#000000" stroke="none">
<path d="M4489 6556 c-2 -2 -46 -7 -97 -10 -51 -4 -103 -9 -115 -12 -12 -2
-34 -5 -49 -6 -16 -1 -28 -5 -28 -8 0 -3 -12 -5 -27 -6 -16 0 -41 -4 -58 -7
-16 -4 -43 -10 -60 -13 -29 -5 -105 -22 -135 -30 -8 -2 -33 -8 -55 -14 -22 -6
-53 -13 -69 -16 -35 -7 -375 -118 -420 -138 -17 -7 -77 -32 -134 -55 -56 -23
-137 -58 -180 -78 -42 -20 -79 -37 -82 -37 -14 -4 -265 -134 -325 -169 -38
-23 -73 -41 -77 -40 -3 2 -12 -4 -18 -12 -7 -8 -16 -15 -20 -15 -11 0 -194
-113 -198 -122 -2 -4 -8 -8 -13 -8 -5 0 -73 -43 -152 -95 -177 -119 -176 -117
-270 -187 -43 -32 -80 -58 -83 -58 -3 0 -19 -13 -37 -30 -18 -16 -35 -30 -38
-30 -5 0 -90 -64 -129 -97 -8 -7 -53 -43 -100 -80 -47 -37 -87 -70 -90 -73 -3
-3 -41 -35 -85 -70 -44 -36 -89 -74 -101 -85 -13 -11 -39 -33 -60 -50 -64 -51
-347 -335 -419 -420 -89 -107 -138 -208 -137 -288 0 -52 23 -131 42 -147 4 -3
26 -34 50 -70 24 -36 78 -109 119 -164 42 -54 85 -110 96 -125 11 -14 24 -31
30 -37 6 -6 27 -31 46 -55 18 -24 114 -124 212 -223 186 -188 180 -179 142
-222 -221 -247 -670 -694 -939 -935 -28 -24 -57 -51 -66 -59 -9 -8 -40 -35
-70 -60 -30 -25 -61 -52 -70 -60 -8 -8 -38 -33 -65 -55 -83 -67 -103 -89 -131
-144 -22 -45 -25 -62 -21 -113 3 -33 10 -65 16 -71 6 -6 11 -19 11 -28 0 -10
25 -43 56 -73 89 -87 193 -118 299 -88 59 16 89 35 210 131 243 193 371 308
644 582 150 150 226 231 431 453 36 38 83 89 105 113 l40 43 110 -92 c61 -50
111 -95 113 -100 2 -4 10 -8 17 -8 7 0 15 -4 17 -8 2 -7 31 -30 153 -125 6 -4
21 -16 34 -27 13 -11 27 -20 30 -20 3 0 22 -14 41 -30 51 -45 367 -256 500
-335 63 -37 124 -73 135 -80 11 -7 23 -12 26 -11 4 1 15 -6 25 -14 23 -18 33
-24 159 -87 151 -77 260 -127 365 -168 52 -20 104 -40 115 -45 27 -11 58 -22
70 -26 6 -1 42 -13 80 -27 39 -13 73 -25 77 -26 4 -1 13 -3 20 -5 14 -5 63
-16 75 -17 5 -1 18 -5 31 -10 13 -5 35 -11 50 -14 15 -3 38 -7 52 -11 75 -18
216 -41 315 -51 133 -14 460 -8 555 11 8 1 33 6 55 10 77 15 240 59 249 67 6
5 16 9 22 9 7 0 23 4 36 9 13 5 25 9 28 9 16 2 236 116 242 126 4 6 8 8 8 4 0
-9 164 101 168 113 2 5 10 9 17 9 7 0 15 3 17 8 2 4 34 34 73 67 123 106 253
249 350 385 22 30 42 57 45 60 16 15 156 264 157 280 0 3 10 26 21 51 24 51
92 270 97 311 2 15 6 31 9 36 2 4 7 30 10 58 3 27 9 66 12 88 3 21 8 52 9 70
5 47 5 295 1 346 -6 71 -18 164 -22 171 -2 3 -6 25 -9 49 -3 23 -7 46 -10 50
-3 4 -7 25 -11 46 -11 75 -96 310 -154 429 -150 304 -344 526 -624 715 -185
124 -473 240 -686 276 -38 6 -80 13 -130 21 -59 9 -462 9 -520 0 -25 -4 -67
-10 -95 -13 -27 -3 -53 -8 -56 -10 -4 -2 -24 -6 -45 -10 -53 -8 -219 -50 -272
-68 -23 -8 -46 -16 -50 -17 -4 -1 -17 -5 -30 -10 -13 -5 -28 -9 -33 -9 -5 0
-28 -9 -52 -19 -23 -11 -80 -36 -127 -56 -129 -55 -390 -201 -405 -226 -4 -5
-11 -7 -16 -4 -5 4 -9 1 -9 -4 0 -6 -6 -11 -14 -11 -8 0 -16 -3 -18 -7 -4 -9
-65 -53 -73 -53 -3 0 -11 -4 -18 -10 -7 -5 -73 -54 -147 -107 -74 -54 -139
-101 -145 -105 -66 -51 -103 -80 -115 -91 -8 -6 -51 -41 -95 -75 -44 -35 -87
-71 -95 -80 -8 -10 -28 -28 -45 -40 -77 -60 -347 -309 -544 -502 -143 -140
-121 -136 -248 -41 -99 74 -204 177 -264 257 -24 32 -47 61 -51 62 -5 2 -8 10
-8 18 0 8 -4 14 -9 14 -5 0 -14 14 -21 31 l-13 30 144 142 c79 78 177 171 218
207 41 36 79 70 85 75 41 39 243 198 356 282 240 179 577 394 799 510 35 18
69 38 76 43 7 5 14 8 17 5 3 -3 11 1 18 10 7 8 16 15 21 15 5 0 51 21 101 46
51 25 136 64 188 85 52 22 109 46 125 54 17 7 50 20 75 28 25 9 62 23 82 31
21 9 39 16 40 15 2 0 10 2 18 5 176 57 413 118 503 131 23 3 67 10 97 16 87
16 262 35 313 35 26 -1 47 1 47 4 0 7 228 5 236 -2 3 -4 16 -3 29 2 13 5 25 7
27 5 2 -3 29 -7 59 -10 83 -8 151 -16 184 -21 17 -3 43 -7 58 -9 44 -6 248
-62 329 -91 225 -79 459 -197 667 -336 42 -29 78 -55 79 -60 2 -4 8 -8 13 -8
8 0 41 -24 169 -129 124 -100 311 -279 422 -402 75 -84 99 -111 153 -175 33
-39 71 -86 85 -104 14 -18 53 -69 88 -112 34 -43 62 -82 62 -87 0 -5 4 -11 8
-13 4 -1 23 -25 42 -53 41 -58 38 -54 95 -130 51 -66 116 -113 169 -119 20 -2
39 -7 43 -9 15 -10 118 15 168 40 57 28 114 84 141 140 24 49 27 144 6 197
-16 43 -90 159 -104 164 -4 2 -8 8 -8 13 0 5 -17 32 -37 59 -21 27 -54 70 -73
97 -19 26 -40 54 -47 63 -7 8 -40 51 -75 95 -34 44 -70 87 -78 95 -9 8 -25 27
-36 42 -19 24 -99 116 -163 187 -95 105 -292 297 -395 386 -32 28 -63 55 -69
60 -49 44 -221 176 -312 239 -60 42 -115 80 -122 86 -7 5 -14 10 -17 10 -2 0
-41 22 -85 50 -112 69 -287 160 -411 213 -113 48 -142 60 -150 61 -3 1 -9 4
-15 8 -29 18 -347 111 -420 123 -11 2 -20 4 -20 5 0 3 -196 37 -270 45 -27 4
-61 9 -75 11 -30 7 -505 16 -511 10z m361 -1811 c14 -3 47 -10 74 -15 125 -25
354 -123 470 -202 90 -61 203 -163 291 -263 153 -174 271 -453 300 -710 13
-109 0 -383 -19 -414 -2 -3 -7 -23 -10 -43 -3 -20 -17 -72 -32 -115 -132 -396
-435 -699 -839 -839 -63 -22 -169 -51 -220 -60 -11 -1 -31 -5 -45 -8 -93 -20
-424 -29 -508 -15 -26 4 -63 10 -82 13 -62 9 -104 17 -145 28 -22 5 -51 12
-64 15 -35 6 -194 61 -249 86 -26 12 -49 21 -52 22 -15 2 -268 131 -284 144
-10 9 -20 15 -22 13 -9 -6 -310 174 -427 255 -42 29 -81 53 -86 53 -5 0 -11 4
-13 8 -1 4 -43 37 -93 72 -103 73 -248 185 -281 216 -12 12 -37 32 -55 45 -18
13 -47 37 -65 54 -58 54 -125 110 -150 123 -20 10 -22 16 -14 32 6 11 16 23
24 27 14 8 108 88 158 133 154 142 223 208 343 327 77 76 164 158 194 183 29
25 63 53 75 64 11 10 41 35 66 55 25 20 47 38 50 41 3 3 54 44 114 90 115 88
161 121 291 206 44 29 85 58 92 64 7 5 14 10 17 10 3 0 29 14 58 31 244 145
539 252 753 276 28 3 51 6 53 8 6 5 306 -3 332 -10z"/>
</g>
</svg>
