<svg width="18" height="18" viewBox="0 0 18 18" fill="none" xmlns="http://www.w3.org/2000/svg">
<path d="M2 4C3.10457 4 4 3.10457 4 2C4 0.895431 3.10457 0 2 0C0.89543 0 0 0.895431 0 2C0 3.10457 0.89543 4 2 4Z" fill="white"/>
<path d="M2 11C3.10457 11 4 10.1046 4 9C4 7.89543 3.10457 7 2 7C0.89543 7 0 7.89543 0 9C0 10.1046 0.89543 11 2 11Z" fill="white"/>
<path d="M2 18C3.10457 18 4 17.1046 4 16C4 14.8954 3.10457 14 2 14C0.89543 14 0 14.8954 0 16C0 17.1046 0.89543 18 2 18Z" fill="white"/>
<path d="M9 4C10.1046 4 11 3.10457 11 2C11 0.895431 10.1046 0 9 0C7.89543 0 7 0.895431 7 2C7 3.10457 7.89543 4 9 4Z" fill="white"/>
<path d="M9 11C10.1046 11 11 10.1046 11 9C11 7.89543 10.1046 7 9 7C7.89543 7 7 7.89543 7 9C7 10.1046 7.89543 11 9 11Z" fill="white"/>
<path d="M9 18C10.1046 18 11 17.1046 11 16C11 14.8954 10.1046 14 9 14C7.89543 14 7 14.8954 7 16C7 17.1046 7.89543 18 9 18Z" fill="white"/>
<path d="M16 4C17.1046 4 18 3.10457 18 2C18 0.895431 17.1046 0 16 0C14.8954 0 14 0.895431 14 2C14 3.10457 14.8954 4 16 4Z" fill="white"/>
<path d="M16 11C17.1046 11 18 10.1046 18 9C18 7.89543 17.1046 7 16 7C14.8954 7 14 7.89543 14 9C14 10.1046 14.8954 11 16 11Z" fill="white"/>
<path d="M16 18C17.1046 18 18 17.1046 18 16C18 14.8954 17.1046 14 16 14C14.8954 14 14 14.8954 14 16C14 17.1046 14.8954 18 16 18Z" fill="white"/>
</svg>
