<svg width="18" height="18" viewBox="0 0 18 18" fill="none" xmlns="http://www.w3.org/2000/svg">
<path d="M9 1.623C11.403 1.623 11.688 1.632 12.6375 1.6755C15.078 1.7865 16.215 2.943 16.3275 5.364C16.3695 6.3135 16.3785 6.597 16.3785 9C16.3785 11.403 16.3695 11.688 16.3275 12.636C16.215 15.0555 15.0795 16.215 12.6375 16.326C11.688 16.368 11.4045 16.3785 9 16.3785C6.597 16.3785 6.312 16.3695 5.364 16.326C2.919 16.2135 1.7865 15.0525 1.674 12.636C1.632 11.688 1.6215 11.403 1.6215 9C1.6215 6.597 1.632 6.312 1.674 5.364C1.785 2.9415 2.922 1.785 5.364 1.674C6.312 1.6305 6.597 1.623 9 1.623ZM9 0C6.555 0 6.2505 0.0105003 5.289 0.0555003C2.019 0.2055 0.204 2.019 0.0539997 5.289C0.0104997 6.2505 0 6.5565 0 9C0 11.445 0.0104997 11.751 0.0539997 12.711C0.204 15.9795 2.019 17.796 5.289 17.946C6.2505 17.9895 6.555 18 9 18C11.445 18 11.751 17.9895 12.7125 17.946C15.9765 17.796 17.799 15.9825 17.946 12.711C17.9895 11.751 18 11.445 18 9C18 6.5565 17.9895 6.2505 17.946 5.289C17.799 2.0235 15.9825 0.204 12.7125 0.0555003C11.751 0.0105003 11.445 0 9 0ZM9 4.3785C6.4485 4.3785 4.3785 6.447 4.3785 9C4.3785 11.553 6.4485 13.6215 9 13.6215C11.5515 13.6215 13.6215 11.553 13.6215 9C13.6215 6.4485 11.5515 4.3785 9 4.3785ZM9 12C7.3425 12 6 10.6575 6 9C6 7.344 7.3425 6 9 6C10.656 6 12.0015 7.3425 12.0015 9C12.0015 10.6575 10.656 12 9 12ZM13.803 3.117C13.2075 3.117 12.723 3.6 12.723 4.197C12.723 4.7925 13.206 5.277 13.803 5.277C14.4 5.277 14.8845 4.794 14.8845 4.197C14.8845 3.6 14.4015 3.117 13.803 3.117Z" fill="#252525"/>
</svg>
